# xmcd
#
# Track frame offsets:
#	150
#	10127
#	22322
#	36527
#	50895
#	65067
#	76072
#	87330
#	99947
#	110865
#	121670
#
# Disc length: 1776 seconds
#
# Revision: 0
# Processed by: cddbd v1.5.2PL0 Copyright (c) Steve Scherf et al.
# Submitted via: EasyCDDAExtractor 16.0.1.1
#
DISCID=9406ee0b
DTITLE=Porter Wagoner and Dolly Parton - Porter and Dolly +1
DYEAR=1980
DGENRE=Country
TTITLE0=Making Plans
TTITLE1=If You Go I'll Follow You
TTITLE2=Hide Me Away
TTITLE3=Someone Just Like You
TTITLE4=Little David's Harp
TTITLE5=Beneath the Sweet Magnolia Tree
TTITLE6=Touching Memories
TTITLE7=Daddy Did His Best
TTITLE8=If You Say I Can
TTITLE9=Singing on the Mountain
TTITLE10=Is Forever Longer Than Always [single PB10652]
EXTD=
EXTT0=
EXTT1=
EXTT2=
EXTT3=
EXTT4=
EXTT5=
EXTT6=
EXTT7=
EXTT8=
EXTT9=
EXTT10=
PLAYORDER=
